# xmcd
#
# Track frame offsets:
#        150
#        15639
#        26974
#
# Disc length: 555 seconds
#
# Revision: 0
# Processed by: cddbd v1.5.1PL0 Copyright (c) Steve Scherf et al.
# Submitted via: ExactAudioCopy v0.95a5
#
DISCID=1d022903
DTITLE=the jeevas - Once Upon A Time In America
DYEAR=2002
DGENRE=Rock
TTITLE0=Once Upon A Time In America
TTITLE1=Old Friends, New Faces
TTITLE2=Teenage Breakdown
EXTD=
EXTT0=
EXTT1=
EXTT2=
PLAYORDER=
